<svg width="1600" height="620" viewBox="0 0 1600 620" fill="none" xmlns="http://www.w3.org/2000/svg">
  <defs>
    <linearGradient id="bg" x1="120" y1="40" x2="1440" y2="580" gradientUnits="userSpaceOnUse">
      <stop stop-color="#07111F"/>
      <stop offset="0.48" stop-color="#0D2847"/>
      <stop offset="1" stop-color="#0B4F6C"/>
    </linearGradient>
    <linearGradient id="card" x1="1035" y1="120" x2="1370" y2="442" gradientUnits="userSpaceOnUse">
      <stop stop-color="#16324F"/>
      <stop offset="1" stop-color="#0A1B2E"/>
    </linearGradient>
  </defs>
  <rect width="1600" height="620" rx="36" fill="url(#bg)"/>
  <circle cx="1320" cy="96" r="180" fill="#38BDF8" fill-opacity="0.08"/>
  <circle cx="240" cy="520" r="220" fill="#34D399" fill-opacity="0.08"/>
  <rect x="64" y="64" width="1472" height="492" rx="30" stroke="#FFFFFF" stroke-opacity="0.15"/>
  <text x="110" y="175" fill="#8BE9FD" font-family="Segoe UI, Arial, sans-serif" font-size="28" font-weight="700" letter-spacing="3">EQUINIX TRAINING PLATFORM</text>
  <text x="110" y="255" fill="#F8FAFC" font-family="Segoe UI, Arial, sans-serif" font-size="78" font-weight="800">OJT Console</text>
  <text x="110" y="320" fill="#D7E3F4" font-family="Segoe UI, Arial, sans-serif" font-size="30" font-weight="500">Trainingsdokumente strukturieren, Sign-offs erfassen, PDFs erzeugen</text>
  <text x="110" y="362" fill="#D7E3F4" font-family="Segoe UI, Arial, sans-serif" font-size="30" font-weight="500">und den gesamten Nachweisprozess in einem Stack betreiben.</text>
  <rect x="110" y="415" width="214" height="58" rx="29" fill="#10B981"/>
  <text x="150" y="452" fill="#04111F" font-family="Segoe UI, Arial, sans-serif" font-size="24" font-weight="800">Portainer Ready</text>
  <rect x="346" y="415" width="186" height="58" rx="29" fill="#0EA5E9"/>
  <text x="395" y="452" fill="#04111F" font-family="Segoe UI, Arial, sans-serif" font-size="24" font-weight="800">Podman Stack</text>
  <rect x="920" y="120" width="500" height="320" rx="28" fill="url(#card)" stroke="#FFFFFF" stroke-opacity="0.10"/>
  <rect x="965" y="166" width="410" height="50" rx="14" fill="#0F3556"/>
  <text x="997" y="199" fill="#E2E8F0" font-family="Segoe UI, Arial, sans-serif" font-size="22" font-weight="700">Training Flow</text>
  <rect x="965" y="242" width="170" height="110" rx="20" fill="#123D63"/>
  <text x="1008" y="295" fill="#F8FAFC" font-family="Segoe UI, Arial, sans-serif" font-size="22" font-weight="700">Docs</text>
  <text x="991" y="325" fill="#C7D2FE" font-family="Segoe UI, Arial, sans-serif" font-size="16">Import and Catalog</text>
  <rect x="1168" y="242" width="170" height="110" rx="20" fill="#14532D"/>
  <text x="1202" y="295" fill="#F8FAFC" font-family="Segoe UI, Arial, sans-serif" font-size="22" font-weight="700">Sign-off</text>
  <text x="1198" y="325" fill="#DCFCE7" font-family="Segoe UI, Arial, sans-serif" font-size="16">Trainer and Learner</text>
  <rect x="1068" y="374" width="170" height="110" rx="20" fill="#7C2D12"/>
  <text x="1122" y="427" fill="#F8FAFC" font-family="Segoe UI, Arial, sans-serif" font-size="22" font-weight="700">PDF</text>
  <text x="1104" y="457" fill="#FED7AA" font-family="Segoe UI, Arial, sans-serif" font-size="16">Archive and Send</text>
  <path d="M1135 296H1160" stroke="#93C5FD" stroke-width="6" stroke-linecap="round"/>
  <path d="M1248 352V374" stroke="#86EFAC" stroke-width="6" stroke-linecap="round"/>
  <path d="M1050 352V374" stroke="#7DD3FC" stroke-width="6" stroke-linecap="round"/>
</svg>